<svg 
 xmlns="http://www.w3.org/2000/svg"
 xmlns:xlink="http://www.w3.org/1999/xlink"
 width="0.306in" height="0.306in">
<path fill-rule="evenodd"  fill="rgb(255, 86, 114)"
 d="M21.178,20.361 L16.127,15.311 C17.426,13.737 18.207,11.719 18.207,9.517 C18.207,4.485 14.129,0.409 9.098,0.406 C4.068,0.409 -0.010,4.485 -0.010,9.517 C-0.010,14.548 4.068,18.624 9.098,18.624 C11.454,18.624 13.594,17.723 15.211,16.256 L20.246,21.292 L21.178,20.361 ZM9.098,17.308 C4.795,17.300 1.316,13.819 1.307,9.517 C1.316,5.214 4.795,1.733 9.098,1.725 C13.402,1.733 16.885,5.214 16.889,9.517 C16.885,13.819 13.402,17.300 9.098,17.308 Z"/>
</svg>