<svg 
 xmlns="http://www.w3.org/2000/svg"
 xmlns:xlink="http://www.w3.org/1999/xlink"
 width="16px" height="16px">
<path fill-rule="evenodd"  fill="rgb(194, 207, 215)"
 d="M15.96,6.234 C14.997,5.755 14.852,5.282 14.661,4.831 C14.473,4.387 14.242,3.960 13.971,3.562 C13.706,3.165 13.398,2.796 13.61,2.458 C12.722,2.120 12.351,1.812 11.956,1.546 C11.558,1.277 11.130,1.42 10.687,0.855 C10.237,0.665 9.763,0.519 9.283,0.421 C8.791,0.320 8.285,0.269 7.780,0.269 C7.273,0.269 6.768,0.320 6.275,0.421 C5.796,0.519 5.323,0.665 4.873,0.855 C4.429,1.42 4.2,1.277 3.603,1.546 C3.208,1.812 2.836,2.120 2.497,2.458 C2.162,2.796 1.854,3.165 1.586,3.562 C1.317,3.960 1.85,4.387 0.899,4.831 C0.707,5.282 0.560,5.755 0.462,6.234 C0.362,6.726 0.310,7.234 0.310,7.737 C0.310,8.245 0.362,8.751 0.462,9.241 C0.560,9.721 0.707,10.195 0.899,10.646 C1.85,11.89 1.317,11.515 1.586,11.915 C1.854,12.310 2.162,12.683 2.497,13.19 C2.836,13.358 3.208,13.663 3.603,13.928 C4.2,14.200 4.429,14.433 4.873,14.620 C5.323,14.810 5.796,14.956 6.275,15.53 C6.768,15.157 7.273,15.206 7.780,15.206 C8.285,15.206 8.791,15.157 9.283,15.53 C9.763,14.956 10.237,14.810 10.687,14.620 C11.130,14.433 11.558,14.200 11.956,13.928 C12.351,13.663 12.722,13.358 13.61,13.19 C13.398,12.683 13.706,12.310 13.971,11.915 C14.242,11.515 14.473,11.89 14.661,10.646 C14.852,10.195 14.997,9.721 15.96,9.241 C15.197,8.751 15.248,8.245 15.248,7.737 C15.248,7.234 15.197,6.726 15.96,6.234 ZM14.156,7.673 C14.63,7.655 11.905,7.191 9.713,7.466 C9.668,7.357 9.622,7.245 9.576,7.136 C9.443,6.823 9.300,6.515 9.152,6.212 C11.670,5.183 12.692,3.704 12.705,3.687 C13.599,4.773 14.140,6.161 14.156,7.673 ZM11.993,2.952 C11.976,2.976 11.68,4.359 8.660,5.261 C7.570,3.257 6.373,1.665 6.276,1.540 C6.760,1.423 7.261,1.361 7.780,1.361 C9.394,1.361 10.869,1.962 11.993,2.952 ZM6.251,1.544 L6.251,1.546 C6.251,1.546 6.243,1.548 6.231,1.550 C6.231,1.550 6.245,1.548 6.251,1.544 ZM5.59,1.970 C5.141,2.83 6.323,3.683 7.426,5.646 C4.364,6.458 1.706,6.425 1.537,6.423 C1.952,4.448 3.279,2.810 5.59,1.970 ZM1.400,7.737 C1.400,7.669 1.404,7.603 1.405,7.536 C1.519,7.538 4.671,7.610 7.954,6.628 C8.137,6.985 8.313,7.349 8.473,7.712 C8.388,7.735 8.305,7.761 8.220,7.788 C4.778,8.900 3.34,11.997 3.34,11.997 L3.35,12.1 C2.20,10.870 1.400,9.376 1.400,7.737 ZM7.780,14.116 C6.236,14.116 4.819,13.567 3.716,12.655 C3.799,12.724 3.859,12.767 3.859,12.767 C3.859,12.767 5.82,10.101 8.865,8.780 C8.879,8.776 8.893,8.771 8.906,8.769 C9.804,11.101 10.175,13.53 10.268,13.612 C9.504,13.937 8.664,14.116 7.780,14.116 ZM11.343,13.27 C11.279,12.644 10.938,10.771 10.102,8.471 C12.161,8.144 13.945,8.708 14.78,8.751 C13.793,10.528 12.777,12.62 11.343,13.27 Z"/>
</svg>