<svg 
 xmlns="http://www.w3.org/2000/svg"
 xmlns:xlink="http://www.w3.org/1999/xlink"
 width="16px" height="15px">
<path fill-rule="evenodd"  fill="rgb(194, 207, 215)"
 d="M15.211,7.504 L12.942,7.504 L12.942,9.776 C12.942,9.948 12.800,10.86 12.627,10.86 L11.981,10.86 C11.807,10.86 11.667,9.948 11.667,9.776 L11.667,7.504 L9.399,7.504 C9.225,7.504 9.82,7.364 9.82,7.190 L9.82,6.543 C9.82,6.372 9.225,6.229 9.399,6.229 L11.667,6.229 L11.667,3.961 C11.667,3.787 11.807,3.647 11.981,3.647 L12.627,3.647 C12.800,3.647 12.942,3.787 12.942,3.961 L12.942,6.229 L15.211,6.229 C15.383,6.229 15.525,6.372 15.525,6.543 L15.525,7.190 C15.525,7.364 15.383,7.504 15.211,7.504 ZM8.409,1.955 C8.355,1.992 8.290,2.14 8.223,2.14 L7.903,2.14 C8.317,2.508 8.559,3.213 8.559,4.6 C8.559,4.881 8.116,5.707 7.312,6.340 C6.689,6.823 6.665,6.955 6.665,7.233 C6.672,7.385 7.108,7.881 7.584,8.219 C8.698,9.6 9.113,9.780 9.113,11.69 C9.113,12.414 8.89,13.580 6.506,14.39 C5.999,14.188 5.450,14.260 4.875,14.260 C4.233,14.260 3.616,14.188 3.42,14.41 C1.929,13.760 1.105,13.229 0.723,12.543 C0.557,12.247 0.474,11.930 0.474,11.599 C0.474,11.265 0.553,10.922 0.713,10.586 C1.321,9.285 2.929,8.411 4.708,8.411 C4.729,8.411 4.744,8.411 4.760,8.411 C4.616,8.157 4.545,7.895 4.545,7.616 C4.545,7.477 4.563,7.338 4.600,7.196 C2.733,7.151 1.336,5.784 1.336,3.981 C1.336,2.707 2.353,1.469 3.808,0.967 C4.245,0.815 4.688,0.739 5.125,0.739 L9.118,0.739 C9.254,0.739 9.373,0.827 9.416,0.957 C9.457,1.86 9.413,1.229 9.302,1.306 L8.409,1.955 ZM2.542,11.174 C2.542,12.196 3.562,12.994 4.866,12.994 C6.586,12.994 7.457,12.401 7.457,11.233 C7.457,11.121 7.445,11.8 7.416,10.893 C7.300,10.438 6.885,10.155 6.256,9.727 C6.168,9.666 6.81,9.606 5.986,9.541 C5.713,9.457 5.426,9.416 5.129,9.411 L5.92,9.411 C3.733,9.411 2.542,10.235 2.542,11.174 ZM6.499,4.125 C6.343,2.944 5.499,1.959 4.618,1.933 L4.582,1.933 C4.268,1.933 3.991,2.61 3.778,2.303 C3.450,2.678 3.309,3.272 3.396,3.931 C3.552,5.114 4.415,6.135 5.278,6.162 L5.293,6.162 C5.618,6.162 5.893,6.34 6.106,5.791 C6.438,5.410 6.586,4.787 6.499,4.125 Z"/>
</svg>