<svg 
 xmlns="http://www.w3.org/2000/svg"
 xmlns:xlink="http://www.w3.org/1999/xlink"
 width="16px" height="13px">
<path fill-rule="evenodd"  fill="rgb(194, 207, 215)"
 d="M15.738,1.553 C15.192,1.796 14.603,1.960 13.986,2.32 C14.615,1.655 15.100,1.58 15.328,0.343 C14.738,0.694 14.83,0.948 13.389,1.87 C12.832,0.491 12.39,0.120 11.160,0.120 C9.474,0.120 8.106,1.488 8.106,3.175 C8.106,3.413 8.135,3.646 8.186,3.870 C5.648,3.745 3.398,2.528 1.892,0.678 C1.629,1.130 1.478,1.655 1.478,2.216 C1.478,3.275 2.18,4.208 2.837,4.757 C2.337,4.741 1.865,4.603 1.453,4.374 C1.453,4.387 1.453,4.402 1.453,4.413 C1.453,5.892 2.506,7.126 3.903,7.407 C3.646,7.478 3.376,7.515 3.98,7.515 C2.902,7.515 2.710,7.495 2.524,7.458 C2.912,8.673 4.39,9.555 5.375,9.581 C4.330,10.399 3.15,10.887 1.584,10.887 C1.336,10.887 1.94,10.872 0.855,10.845 C2.207,11.710 3.812,12.216 5.537,12.216 C11.153,12.216 14.225,7.564 14.225,3.528 C14.225,3.398 14.222,3.265 14.215,3.134 C14.811,2.702 15.330,2.165 15.738,1.553 Z"/>
</svg>