<svg 
 xmlns="http://www.w3.org/2000/svg"
 xmlns:xlink="http://www.w3.org/1999/xlink"
 width="15px" height="15px">
<path fill-rule="evenodd"  fill="rgb(194, 207, 215)"
 d="M12.204,14.746 L2.798,14.746 C1.303,14.746 0.90,13.534 0.90,12.41 L0.90,9.864 C0.90,8.370 1.303,7.157 2.798,7.157 L12.204,7.157 C13.698,7.157 14.909,8.370 14.909,9.864 L14.909,12.41 C14.909,13.534 13.698,14.746 12.204,14.746 ZM4.774,8.112 L2.182,8.112 L2.182,8.852 L3.56,8.852 L3.56,13.196 L3.900,13.196 L3.900,8.852 L4.774,8.852 L4.774,8.112 ZM7.244,9.444 L6.495,9.444 L6.495,12.293 C6.425,12.375 6.347,12.444 6.262,12.496 C6.177,12.549 6.108,12.575 6.53,12.575 C5.983,12.575 5.932,12.553 5.900,12.512 C5.869,12.475 5.852,12.411 5.852,12.321 L5.852,9.444 L5.102,9.444 L5.102,12.580 C5.102,12.805 5.147,12.971 5.236,13.82 C5.324,13.196 5.453,13.250 5.625,13.250 C5.767,13.250 5.911,13.211 6.63,13.131 C6.212,13.53 6.356,12.936 6.495,12.786 L6.495,13.196 L7.244,13.196 L7.244,9.444 ZM9.963,10.340 C9.963,10.32 9.902,9.797 9.778,9.639 C9.651,9.478 9.470,9.399 9.233,9.399 C9.116,9.399 9.1,9.430 8.887,9.489 C8.774,9.547 8.666,9.635 8.567,9.748 L8.567,8.112 L7.807,8.112 L7.807,13.196 L8.567,13.196 L8.567,12.907 C8.663,13.21 8.771,13.108 8.887,13.163 C9.0,13.217 9.131,13.243 9.280,13.243 C9.500,13.243 9.671,13.174 9.787,13.32 C9.905,12.889 9.963,12.686 9.963,12.420 L9.963,10.340 ZM12.563,11.946 L11.792,11.946 L11.792,12.118 C11.792,12.338 11.768,12.478 11.717,12.543 C11.668,12.610 11.581,12.643 11.457,12.643 C11.339,12.643 11.252,12.603 11.203,12.528 C11.153,12.452 11.131,12.315 11.131,12.118 L11.131,11.411 L12.563,11.411 L12.563,10.454 C12.563,10.96 12.472,9.827 12.288,9.637 C12.103,9.446 11.839,9.352 11.494,9.352 C11.160,9.352 10.889,9.454 10.676,9.659 C10.463,9.864 10.358,10.131 10.358,10.454 L10.358,12.139 C10.358,12.500 10.455,12.786 10.647,12.987 C10.839,13.196 11.103,13.297 11.440,13.297 C11.814,13.297 12.95,13.202 12.281,13.8 C12.470,12.811 12.563,12.521 12.563,12.139 L12.563,11.946 ZM11.131,10.448 C11.131,10.290 11.155,10.176 11.207,10.112 C11.259,10.41 11.346,10.8 11.463,10.8 C11.578,10.8 11.662,10.41 11.714,10.112 C11.766,10.176 11.792,10.290 11.792,10.448 L11.792,10.827 L11.131,10.827 L11.131,10.448 ZM8.925,12.655 C8.860,12.655 8.802,12.643 8.743,12.616 C8.686,12.590 8.626,12.543 8.567,12.483 L8.567,10.145 C8.616,10.96 8.667,10.53 8.721,10.30 C8.772,10.6 8.826,9.995 8.879,9.995 C8.980,9.995 9.58,10.28 9.113,10.92 C9.166,10.159 9.191,10.252 9.191,10.381 L9.191,12.319 C9.191,12.437 9.169,12.521 9.126,12.576 C9.82,12.631 9.16,12.655 8.925,12.655 ZM10.852,5.396 C10.700,5.565 10.537,5.694 10.368,5.784 C10.200,5.869 10.37,5.914 9.879,5.914 C9.683,5.914 9.537,5.850 9.437,5.727 C9.338,5.605 9.289,5.422 9.289,5.174 L9.289,1.723 L10.131,1.723 L10.131,4.889 C10.131,4.987 10.151,5.59 10.186,5.102 C10.219,5.146 10.278,5.168 10.358,5.168 C10.418,5.168 10.498,5.139 10.593,5.80 C10.688,5.24 10.774,4.949 10.852,4.860 L10.852,1.723 L11.698,1.723 L11.698,5.853 L10.852,5.853 L10.852,5.396 ZM7.372,5.957 C7.4,5.957 6.707,5.853 6.487,5.646 C6.266,5.437 6.155,5.161 6.155,4.807 L6.155,2.666 C6.155,2.346 6.267,2.92 6.495,1.903 C6.722,1.713 7.28,1.618 7.411,1.618 C7.760,1.618 8.46,1.717 8.271,1.918 C8.492,2.118 8.604,2.377 8.604,2.692 L8.604,4.825 C8.604,5.178 8.495,5.454 8.278,5.657 C8.56,5.858 7.756,5.957 7.372,5.957 ZM7.744,2.635 C7.744,2.547 7.709,2.473 7.641,2.416 C7.573,2.360 7.482,2.334 7.370,2.334 C7.267,2.334 7.184,2.360 7.118,2.416 C7.56,2.473 7.23,2.547 7.23,2.635 L7.23,4.887 C7.23,5.0 7.53,5.86 7.113,5.149 C7.172,5.211 7.257,5.241 7.370,5.241 C7.485,5.241 7.575,5.211 7.643,5.149 C7.711,5.84 7.744,4.996 7.744,4.887 L7.744,2.635 ZM4.980,5.853 L4.30,5.853 L4.30,3.635 L2.898,0.252 L3.855,0.252 L4.471,2.493 L4.533,2.493 L5.120,0.252 L6.86,0.252 L4.980,3.530 L4.980,5.853 Z"/>
</svg>